# xmcd
#
# Track frame offsets: 
#        150
#        24240
#        39177
#        56922
#        89742
#        107972
#        134197
#        154695
#        180575
#
# Disc length: 2540 seconds
#
# Revision: 7
# Processed by: cddbd v1.5.2PL0 Copyright (c) Steve Scherf et al.
# Submitted via: ExactAudioCopy v0.99pb4
#
DISCID=7909ea09
DTITLE=Zucchero Sugar Fornaciari - Oro incenso and birra
DYEAR=1989
DGENRE=Blues
TTITLE0=Overdose (d'amore)
TTITLE1=Nice (Nietzsche) che dice
TTITLE2=Il mare impetuoso al tramonto salì sulla luna e dietro una ten
TTITLE2=dina di stelle...
TTITLE3=Madre dolcissima
TTITLE4=Diavolo in me
TTITLE5=Iruben me
TTITLE6=A wonderful world
TTITLE7=Diamante
TTITLE8=Libera l'amore
EXTD=
EXTT0=
EXTT1=
EXTT2=
EXTT3=
EXTT4=
EXTT5=
EXTT6=
EXTT7=
EXTT8=
PLAYORDER=
